HIERARCHY
ROOT SpineBase
{
  OFFSET 0.000000 0.000000 0.000000
  CHANNELS 6 Xposition Yposition Zposition Zrotation Xrotation Yrotation
  JOINT SpineMid
  {
    OFFSET 0.000000 27.763795 0.000000
    CHANNELS 3 Zrotation Xrotation Yrotation
    JOINT SpineShoulder
    {
      OFFSET 0.008915 20.659572 -0.576672
      CHANNELS 3 Zrotation Xrotation Yrotation
      JOINT Neck
      {
        OFFSET 0.002368 6.863181 -0.445220
        CHANNELS 3 Zrotation Xrotation Yrotation
        JOINT Head
        {
          OFFSET 3.709542 12.982977 2.435256
          CHANNELS 3 Zrotation Xrotation Yrotation
          End Site
          {
            OFFSET 0 0 0
          }
        }
      }
      JOINT ShoulderLeft
      {
        OFFSET -10.283022 -3.259927 -8.875951
        CHANNELS 3 Zrotation Xrotation Yrotation
        JOINT ElbowLeft
        {
          OFFSET -7.203475 -18.264784 -3.183557
          CHANNELS 3 Zrotation Xrotation Yrotation
          JOINT WristLeft
          {
            OFFSET 19.057946 -3.898876 -4.698341
            CHANNELS 3 Zrotation Xrotation Yrotation
            JOINT HandLeft
            {
              OFFSET 5.342512 0.203887 -1.301735
              CHANNELS 3 Zrotation Xrotation Yrotation
              JOINT HandTipLeft
              {
                OFFSET 5.384372 0.436133 -1.164680
                CHANNELS 3 Zrotation Xrotation Yrotation
                End Site
                {
                  OFFSET 0 0 0
                }
              }
              JOINT ThumbLeft
              {
                OFFSET 3.127605 0.820523 -0.063701
                CHANNELS 3 Zrotation Xrotation Yrotation
                End Site
                {
                  OFFSET 0 0 0
                }
              }
            }
          }
        }
      }
      JOINT ShoulderRight
      {
        OFFSET 11.886225 -4.365539 6.455299
        CHANNELS 3 Zrotation Xrotation Yrotation
        JOINT ElbowRight
        {
          OFFSET 2.916112 -23.775369 1.888957
          CHANNELS 3 Zrotation Xrotation Yrotation
          JOINT WristRight
          {
            OFFSET 1.285933 -22.743000 -4.049879
            CHANNELS 3 Zrotation Xrotation Yrotation
            JOINT HandRight
            {
              OFFSET 0.040619 -6.583867 -1.076585
              CHANNELS 3 Zrotation Xrotation Yrotation
              JOINT HandTipRight
              {
                OFFSET 0.209669 -5.943687 -0.092119
                CHANNELS 3 Zrotation Xrotation Yrotation
                End Site
                {
                  OFFSET 0 0 0
                }
              }
              JOINT ThumbRight
              {
                OFFSET 1.671922 -0.869012 -0.418012
                CHANNELS 3 Zrotation Xrotation Yrotation
                End Site
                {
                  OFFSET 0 0 0
                }
              }
            }
          }
        }
      }
    }
  }
  JOINT HipLeft
  {
    OFFSET -4.737392 1.206481 -5.888406
    CHANNELS 3 Zrotation Xrotation Yrotation
    JOINT KneeLeft
    {
      OFFSET -8.167307 -31.191676 -0.595421
      CHANNELS 3 Zrotation Xrotation Yrotation
      JOINT AnkleLeft
      {
        OFFSET -2.336683 -31.691403 7.304112
        CHANNELS 3 Zrotation Xrotation Yrotation
        JOINT FootLeft
        {
          OFFSET 3.355683 -6.952252 0.526230
          CHANNELS 3 Zrotation Xrotation Yrotation
          End Site
          {
            OFFSET 0 0 0
          }
        }
      }
    }
  }
  JOINT HipRight
  {
    OFFSET 4.382063 0.301988 0.218273
    CHANNELS 3 Zrotation Xrotation Yrotation
    JOINT KneeRight
    {
      OFFSET -4.644775 -34.598607 2.902689
      CHANNELS 3 Zrotation Xrotation Yrotation
      JOINT AnkleRight
      {
        OFFSET -6.489769 -30.484802 6.138294
        CHANNELS 3 Zrotation Xrotation Yrotation
        JOINT FootRight
        {
          OFFSET -0.543408 -4.651241 -7.395281
          CHANNELS 3 Zrotation Xrotation Yrotation
          End Site
          {
            OFFSET 0 0 0
          }
        }
      }
    }
  }
}
MOTION
Frames: 5
Frame Time: 0.033333
22.514442 70.868045 354.446840 2.397519 -0.539882 -27.178850 -0.210738 0.076590 27.250396 0.755391 0.063337 0.127772 -7.734189 8.004138 -1.119864 0.000000 0.000000 0.000000 30.200696 42.561134 -37.519848 70.939391 -12.937099 16.150532 -40.845776 -3.306491 30.880007 8.776290 -3.207088 -14.235249 0.000000 0.000000 0.000000 0.000000 0.000000 0.000000 -6.129408 -0.899151 -0.602563 10.314618 -3.802020 -1.046195 -12.580211 2.185054 3.074808 3.661442 12.188443 -0.384288 0.000000 0.000000 0.000000 0.000000 0.000000 0.000000 -3.170188 0.471782 26.832852 0.215162 -1.326684 0.346027 13.638482 58.284469 23.529085 0.000000 0.000000 0.000000 -2.871935 -2.412617 27.243065 2.300517 1.143505 0.141460 -4.068883 1.331538 4.398033 0.000000 0.000000 0.000000
22.744989 71.000040 354.700619 2.702833 -0.810878 -27.518901 -0.290456 0.197372 27.603430 0.781231 0.013285 0.140540 -8.166050 9.108220 -1.308316 0.000000 0.000000 0.000000 33.128395 45.595924 -42.030501 71.745231 -12.415639 20.431437 -39.492224 -3.763279 27.309880 6.774103 -1.698437 -9.944818 0.000000 0.000000 0.000000 0.000000 0.000000 0.000000 -6.437007 -0.289375 -0.542088 10.242304 -4.836862 -1.020244 -13.162096 5.363863 3.464942 4.813302 5.180861 -0.698894 0.000000 0.000000 0.000000 0.000000 0.000000 0.000000 -3.645826 0.599033 27.162884 0.262464 -1.403660 0.366065 4.717826 63.575637 31.751980 0.000000 0.000000 0.000000 -3.642361 -1.954869 27.501973 2.593675 0.747325 0.236222 -3.973521 -0.708889 4.328066 0.000000 0.000000 0.000000
22.988362 71.003493 354.932390 2.985467 -1.017056 -26.938177 -0.353261 0.198932 27.035848 0.767340 -0.048128 0.148644 -8.150383 10.024041 -1.515851 0.000000 0.000000 0.000000 39.446271 51.126426 -51.334797 74.119045 -12.560775 27.791257 -37.931863 -4.904779 23.292476 6.965574 0.730386 -5.407944 0.000000 0.000000 0.000000 0.000000 0.000000 0.000000 -6.702561 0.295790 -0.486752 10.270422 -5.460351 -0.999930 -12.989906 6.051408 3.500154 3.843951 3.783277 -0.671632 0.000000 0.000000 0.000000 0.000000 0.000000 0.000000 -5.835034 1.393079 26.256594 1.621308 -2.848947 0.758657 -0.021996 63.682975 34.935676 0.000000 0.000000 0.000000 -4.445820 -1.743832 26.853847 2.836072 -0.043285 0.403866 -4.808878 -2.931489 6.218087 0.000000 0.000000 0.000000
23.199011 71.133446 355.133231 3.261788 -1.150296 -27.183374 -0.342932 0.224062 27.294426 0.772117 -0.074695 0.160183 -8.779762 10.607595 -1.528552 0.000000 0.000000 0.000000 45.599037 52.363778 -57.974544 73.911407 -12.036723 31.870839 -37.496085 -6.216414 19.188431 8.980111 2.708372 -3.772557 0.000000 0.000000 0.000000 0.000000 0.000000 0.000000 -7.012751 0.853642 -0.429978 10.311427 -5.858964 -0.990508 -12.967196 6.882274 3.528659 3.554765 2.796685 -0.649955 0.000000 0.000000 0.000000 0.000000 0.000000 0.000000 -7.521393 1.907367 26.264948 2.627191 -3.938453 1.079003 9.627056 58.710748 26.007162 0.000000 0.000000 0.000000 -5.158273 -1.556315 27.024759 2.884902 -0.428764 0.446518 -3.594133 -3.553910 4.739246 0.000000 0.000000 0.000000
23.321679 71.314411 355.272313 3.399318 -1.150058 -27.379020 -0.349925 0.212375 27.494847 0.661628 -0.029363 0.156919 -8.395849 11.079343 -1.769278 0.000000 0.000000 0.000000 51.356356 51.360801 -62.552489 72.285470 -8.179851 34.801648 -44.429121 -14.879651 7.386559 13.628852 7.700598 -1.780252 0.000000 0.000000 0.000000 0.000000 0.000000 0.000000 -7.173826 0.664824 -0.466695 10.463716 -4.972227 -0.988680 -11.818210 5.904567 3.065327 -0.235742 0.202064 -0.619341 0.000000 0.000000 0.000000 0.000000 0.000000 0.000000 -8.741980 2.316470 26.258022 3.406120 -4.855639 1.363246 11.865651 56.469146 23.637972 0.000000 0.000000 0.000000 -5.523915 -1.499725 27.169417 2.195237 -0.052095 0.192674 0.893249 -0.577869 -1.360323 0.000000 0.000000 0.000000
